<?xml version="1.0" encoding="UTF-8" standalone="no"?>
<svg
   xmlns:dc="http://purl.org/dc/elements/1.1/"
   xmlns:cc="http://creativecommons.org/ns#"
   xmlns:rdf="http://www.w3.org/1999/02/22-rdf-syntax-ns#"
   xmlns:svg="http://www.w3.org/2000/svg"
   xmlns="http://www.w3.org/2000/svg"
   id="svg2"
   version="1.1"
   viewBox="0 0 47 15"
   height="15pt"
   width="47pt">
  <metadata
     id="metadata53">
    <rdf:RDF>
      <cc:Work
         rdf:about="">
        <dc:format>image/svg+xml</dc:format>
        <dc:type
           rdf:resource="http://purl.org/dc/dcmitype/StillImage" />
        <dc:title></dc:title>
      </cc:Work>
    </rdf:RDF>
  </metadata>
  <defs
     id="defs51" />
  <g
     transform="translate(0,-620)"
     id="#ffffffff" />
  <g
     transform="matrix(0.01946536,0,0,0.01946536,0.8751995,13.202933)"
     id="g4181">
    <g
       id="#1e2c87ff"
       transform="translate(0,-620)">
      <path
         d="m 1972.81,49.54 c 30.62,-8.53 59.04,-23.11 86.58,-38.71 -3.84,7.76 -8.26,15.23 -12.05,23.01 13.85,-1.29 27.74,-2.14 41.61,-3.32 -8.84,5.99 -17.86,11.7 -26.52,17.92 13.92,7.59 28.64,13.54 42.86,20.51 -12.09,0.5 -24.2,0.25 -36.29,0.67 8.92,11.15 17.97,22.36 24.78,34.96 -22.58,-13.46 -41.79,-32.03 -65.27,-44.06 -17.27,-8.46 -36.89,-9.3 -55.7,-10.98 z"
         id="path6"
         style="opacity:1;fill:#1e2c87" />
      <path
         d="m 2292.27,103.71 c 4.2,-2.64 8.31,-5.42 12.61,-7.9 -3.26,6.18 -6.78,12.21 -9.9,18.45 6.25,-2.7 12.33,-5.79 18.51,-8.68 -3.06,6.93 -5.27,14.42 -4.28,22.07 -25.3,14.77 -52.67,25.72 -80.6,34.41 22.53,-17.6 42.09,-39.17 56.22,-64.09 2.46,1.92 4.93,3.85 7.44,5.74 z"
         id="path8"
         style="opacity:1;fill:#1e2c87" />
      <path
         d="m 1404.56,254.75 c 12.01,-12.4 23.65,-25.21 36.87,-36.34 -2.91,11.77 -11.63,21.23 -13.95,33.21 -1.47,5.84 1.48,11.66 5.85,15.43 -33.06,10.23 -62.8,28.57 -90.89,48.38 10.74,-11.45 20.37,-23.95 28.46,-37.42 11.7,-19.1 21.2,-39.43 32.04,-59.01 0.76,11.91 1.05,23.83 1.62,35.75 z"
         id="path10"
         style="opacity:1;fill:#1e2c87" />
      <path
         d="m 1626.78,296.48 c 18.08,-15.16 32.34,-34.1 47.89,-51.69 -3.11,8.55 -6.43,17.02 -9.74,25.49 12.58,-2.47 25.07,-5.4 37.72,-7.58 -8.62,8.63 -18.29,16.15 -26.94,24.74 13.19,1.37 26.35,2.91 39.49,4.68 -7.71,7.63 -17.48,12.54 -26.96,17.54 7.88,8.55 15.98,16.91 23.81,25.52 -20.9,-4.5 -42.02,-7.94 -63.17,-11.02 -1.04,-6.41 -2.01,-12.82 -2.96,-19.24 -0.37,-1.33 -0.37,-3.26 -2.02,-3.64 -5.59,-1.99 -11.39,-3.33 -17.12,-4.8 z"
         id="path12"
         style="opacity:1;fill:#1e2c87" />
      <path
         d="m 1178.29,334.37 c 6.02,-11.8 11.76,-23.75 18.07,-35.39 2.2,25.71 -0.95,51.6 1.35,77.31 3.29,-4.79 4.72,-10.55 6.69,-15.95 4.65,-14.73 7.27,-30.02 12.25,-44.65 1.98,5.78 2.7,11.9 4.23,17.81 9.15,-6.17 17.63,-13.26 26.46,-19.86 -1.87,7.83 -4.12,15.55 -6.13,23.34 10.18,-2.88 20.31,-5.96 30.59,-8.5 -15.03,17.11 -25.66,37.52 -40.27,54.95 -14.32,15.01 -26.2,32.22 -36.16,50.37 3.74,0.41 7.5,0.8 11.22,1.5 0.14,0.12 0.41,0.36 0.54,0.47 2.1,2.09 4.17,4.23 6.58,5.98 -6.26,0.82 -12.52,1.98 -18.86,1.41 -2.74,-0.54 -5.5,-0.97 -8.25,-1.41 -2.87,-2.39 -5.94,-4.55 -9.17,-6.42 4.78,-3.25 10.03,-5.76 14.72,-9.16 -6.52,0.68 -12.99,1.77 -19.51,2.36 3.38,-5.07 6.74,-10.17 10.02,-15.31 -13.65,-10.85 -21.82,-26.81 -28.1,-42.72 -4.92,-11.48 -8.33,-23.63 -14.14,-34.69 1.82,14.45 3.13,29.9 11.78,42.18 5.43,6.71 9.77,14.21 14.59,21.38 5.34,8.41 9.92,19.2 5.28,28.95 -5.51,-4.91 -9.9,-11.24 -16.51,-14.8 -3.95,-2.24 -8.7,-1.95 -12.96,-0.92 -16.23,-27.88 -44.34,-46.09 -61.61,-73.17 9.23,2.35 18.41,4.92 27.6,7.5 0.25,-10.07 0.17,-20.14 0.37,-30.21 5.99,6.89 11.85,13.9 17.8,20.83 3.05,-8.77 5.17,-17.84 7.95,-26.7 7.46,9.07 14.78,18.26 22.57,27.06 4.34,-10.98 6.74,-22.58 9.21,-34.09 3.62,10.29 7.22,20.64 11.8,30.55 z"
         id="path14"
         style="opacity:1;fill:#1e2c87" />
      <path
         d="m 1078.74,367.64 c 17.36,15.12 33.34,31.76 50.98,46.58 -5.26,2.03 -10.81,3.26 -15.96,5.55 -1.34,0.45 -1.64,1.89 -2.08,3.05 -1.3,3.76 -2.17,7.64 -3.08,11.51 -6.1,-3.62 -12.47,-6.74 -18.74,-10.05 1.61,-7.32 2.1,-14.83 2.82,-22.27 0.32,-1.83 -0.6,-3.48 -1.38,-5.04 -4.98,-9.41 -9.13,-19.26 -12.56,-29.33 z"
         id="path16"
         style="opacity:1;fill:#1e2c87" />
      <path
         d="m 1242.01,380.88 c 2.29,-0.06 4.65,-0.28 6.92,0.33 1.33,2.69 -1.34,5.09 -3.37,6.43 -1.42,0.63 -3.47,2.12 -4.59,0.29 -0.58,-2.41 0.36,-4.78 1.04,-7.05 z"
         id="path18"
         style="opacity:1;fill:#1e2c87" />
      <path
         d="m 1322.89,458.27 c 2.72,-0.53 5.43,-1.29 8.24,-1.18 -8.92,6.98 -19.36,11.74 -30.13,15.05 -4.74,1.62 -9.73,2.38 -14.4,4.22 8.9,4.39 17.84,8.71 26.69,13.21 -11.12,0.63 -22.24,1.23 -33.37,1.64 10.87,9.98 22.08,19.57 33.01,29.49 -17.95,-5.75 -35.74,-12.79 -51.34,-23.54 0.63,-0.05 1.89,-0.16 2.51,-0.21 2.24,0.47 4.55,0.45 6.76,-0.26 1.52,-0.28 3.03,-0.56 4.58,-0.83 -2.36,-6.03 -6.13,-11.36 -8.52,-17.37 3.31,-2.19 6.62,-4.37 9.92,-6.58 1.28,-0.98 2.97,-1.82 3.4,-3.52 -6.8,-1.7 -13.62,-3.41 -20.5,-4.73 0.89,-0.89 1.97,-1.24 3.21,-1.05 20.07,1.28 40.21,-0.67 59.94,-4.34 z"
         id="path20"
         style="opacity:1;fill:#1e2c87" />
      <path
         d="m 1197.29,483.02 c 4.82,1.42 9.5,3.35 14.46,4.32 1.18,0.27 2.4,0.53 3.62,0.8 4.07,5.35 9.11,9.89 13.57,14.93 -3.59,3.1 -7.1,6.29 -10.8,9.26 -1.07,9.49 -0.88,19.08 -2.11,28.56 -4.64,-8.34 -8.18,-17.23 -11.57,-26.13 -4.77,6.24 -8.83,12.99 -13.45,19.35 -0.02,-7.93 1.81,-15.74 2.19,-23.66 -6.19,1.36 -12.3,3.05 -18.52,4.19 1.28,-3.79 2.34,-7.65 3.35,-11.52 2.38,-4.51 6.56,-7.57 10.15,-11.05 3.07,-2.98 6.04,-6.06 9.11,-9.05 z"
         id="path22"
         style="opacity:1;fill:#1e2c87" />
      <path
         d="m 1224.98,517.35 c 2.6,-4.36 9.3,-4.92 12.52,-0.98 1.65,2.13 0.57,4.88 -0.57,6.95 -3.99,-2 -7.98,-3.96 -11.95,-5.97 z"
         id="path24"
         style="opacity:1;fill:#1e2c87" />
    </g>
    <g
       id="#7b93b2ff"
       transform="translate(0,-620)">
      <path
         d="m 1436.67,256.86 c 2.55,-0.66 5.94,-3.04 8.26,-0.78 0.99,3.36 -1.66,7.44 -5.02,8.26 -3.22,-0.76 -2.64,-4.99 -3.24,-7.48 z"
         id="path27"
         style="opacity:1;fill:#7b93b2" />
      <path
         d="m 1298.37,364.46 c 2.1,-3.69 3.86,-7.63 6.67,-10.87 1.23,9.01 1.28,18.12 2.3,27.14 3.98,-2.61 7.99,-5.18 12.12,-7.55 -0.57,7.01 -0.87,14.05 -1.87,21.02 -0.46,-1.51 -0.88,-3 -1.29,-4.49 -0.55,-1.9 -1.08,-3.81 -1.59,-5.71 -4.76,2.48 -9.36,5.27 -14.35,7.28 -0.63,-8.94 -1.32,-17.88 -1.99,-26.82 z"
         id="path29"
         style="opacity:1;fill:#7b93b2" />
      <path
         d="m 1195.37,433.8 c 9.96,-18.15 21.84,-35.36 36.16,-50.37 3.46,5.78 9.7,10.27 10.36,17.48 0.79,5.85 -3.69,10.34 -7.75,13.8 3.71,-1.22 7.42,-2.54 11.32,-3.07 -8.86,6.67 -18.49,12.26 -28.12,17.72 -3.42,2.1 -7.66,3.13 -10.21,6.41 -0.13,-0.11 -0.4,-0.35 -0.54,-0.47 -3.72,-0.7 -7.48,-1.09 -11.22,-1.5 z"
         id="path31"
         style="opacity:1;fill:#7b93b2" />
      <path
         d="m 1075.65,395.98 c 5.31,0.82 10.6,1.81 15.9,2.74 l -0.25,-1.75 c 0.78,1.56 1.7,3.21 1.38,5.04 -0.72,7.44 -1.21,14.95 -2.82,22.27 -4.81,-4.07 -9.39,-8.39 -13.99,-12.68 3.03,-0.65 6.08,-1.27 9.13,-1.88 -2.97,-4.68 -6.38,-9.07 -9.35,-13.74 z"
         id="path33"
         style="opacity:1;fill:#7b93b2" />
      <path
         d="m 1264.1,496.95 c 1.97,-1.72 4.61,-1.58 6.76,-0.26 -2.21,0.71 -4.52,0.73 -6.76,0.26 z"
         id="path35"
         style="opacity:1;fill:#7b93b2" />
    </g>
    <g
       id="#1556a7ff"
       transform="translate(0,-620)">
      <path
         d="m 1591.2,319.31 c 11.86,-7.6 23.78,-15.12 35.58,-22.83 5.73,1.47 11.53,2.81 17.12,4.8 1.65,0.38 1.65,2.31 2.02,3.64 0.95,6.42 1.92,12.83 2.96,19.24 -19.17,-2.23 -38.37,-4.46 -57.68,-4.85 z"
         id="path38"
         style="opacity:1;fill:#1556a7" />
      <path
         d="m 1245.46,411.64 c 20.03,-12.79 37.41,-29.27 52.91,-47.18 0.67,8.94 1.36,17.88 1.99,26.82 4.99,-2.01 9.59,-4.8 14.35,-7.28 0.51,1.9 1.04,3.81 1.59,5.71 -3.84,9.91 -14.43,13.9 -22.15,20.12 14.56,0.73 29.13,1.32 43.67,2.56 -12.09,10.88 -28.82,13.09 -44.22,15.71 6.09,4.91 12.68,9.17 18.86,13.97 -21.83,7 -44.96,11.62 -67.95,9.15 -10.78,-1.1 -21.17,-4.58 -30.8,-9.47 -2.41,-1.75 -4.48,-3.89 -6.58,-5.98 2.55,-3.28 6.79,-4.31 10.21,-6.41 9.63,-5.46 19.26,-11.05 28.12,-17.72 z"
         id="path40"
         style="opacity:1;fill:#1556a7" />
      <path
         d="m 1129.72,414.22 c 8.19,2.81 13.86,9.62 20.41,14.9 2.26,-2.75 4.52,-5.51 6.81,-8.25 6.86,4.77 13.46,9.93 20.49,14.46 3.23,1.87 6.3,4.03 9.17,6.42 -8.9,12.57 -18.43,24.69 -28.7,36.16 -8.7,9.1 -18.52,17.05 -28.16,25.11 0.39,-5.13 0.92,-10.24 1.36,-15.35 -5.6,1.16 -11.2,2.33 -16.8,3.44 3.54,-5.59 7.52,-10.91 10.88,-16.63 -9.45,-0.43 -18.89,-0.76 -28.33,-1.3 6.18,-4.2 13.11,-7.12 19.41,-11.1 -12.64,-8.57 -26.54,-15.66 -37.64,-26.37 18.09,5.41 36.27,11.29 55.23,12.71 13.12,1.03 26.6,0.37 39.21,-3.69 -21.46,-3.56 -43.63,-3.58 -64.46,-10.4 0.91,-3.87 1.78,-7.75 3.08,-11.51 0.44,-1.16 0.74,-2.6 2.08,-3.05 5.15,-2.29 10.7,-3.52 15.96,-5.55 z"
         id="path42"
         style="opacity:1;fill:#1556a7" />
      <path
         d="m 1194.06,448.3 c 1.7,-1.56 1.6,-4.91 4.55,-4.78 5.39,-1.38 9.8,2.34 14.42,4.4 10.89,5.24 22.29,9.41 33.95,12.58 3.65,0.88 7.39,2.08 11.2,1.33 -0.29,0.59 -0.56,1.2 -0.8,1.81 0.59,0.01 1.77,0.02 2.36,0.02 6.88,1.32 13.7,3.03 20.5,4.73 -0.43,1.7 -2.12,2.54 -3.4,3.52 -3.3,2.21 -6.61,4.39 -9.92,6.58 2.39,6.01 6.16,11.34 8.52,17.37 -1.55,0.27 -3.06,0.55 -4.58,0.83 -2.15,-1.32 -4.79,-1.46 -6.76,0.26 -0.62,0.05 -1.88,0.16 -2.51,0.21 -13.17,-6.25 -24.3,-16.05 -35.17,-25.63 -8.11,-7.28 -16.12,-14.67 -24.54,-21.58 2.69,12.97 7.39,25.49 13.22,37.37 -0.84,0 -2.51,0.01 -3.35,0.02 -4.96,-0.97 -9.64,-2.9 -14.46,-4.32 -3.07,2.99 -6.04,6.07 -9.11,9.05 -3.59,3.48 -7.77,6.54 -10.15,11.05 4.65,-18.46 9.63,-36.87 16.03,-54.82 z"
         id="path44"
         style="opacity:1;fill:#1556a7" />
    </g>
    <g
       id="#038561ff"
       transform="translate(0,-620)">
      <path
         d="m 22.51,340.52 c 1.52,-1.65 4.19,-2.38 6.15,-1.05 65.55,55.5 134.93,107.02 209.88,149.23 33.57,19 68.54,35.41 104.01,50.55 119.86,50.17 250.86,71.46 380.46,68.03 9.63,-0.82 19.31,-0.48 28.94,-1.28 81.87,-4.47 163.25,-17.02 242.97,-36.13 22.54,-5.29 44.92,-11.25 67.19,-17.58 18.71,-5.69 37.87,-9.78 56.47,-15.84 18.55,-5.91 36.91,-12.97 53.57,-23.17 -1.48,0.23 -3.28,1.69 -4.42,0.06 -5.02,-5.19 -9.84,-10.95 -12.28,-17.85 -2.12,-5.79 -1.37,-12.65 2.45,-17.58 10.27,-11.47 19.8,-23.59 28.7,-36.16 2.75,0.44 5.51,0.87 8.25,1.41 l 1.05,0.58 c -0.75,1.47 -1.49,2.94 -1.84,4.56 -6.4,17.95 -11.38,36.36 -16.03,54.82 -1.01,3.87 -2.07,7.73 -3.35,11.52 -0.5,1.13 -0.76,2.43 -1.56,3.39 -19.1,9.2 -38.49,18.16 -59.07,23.58 -81.52,26.66 -164.3,50.45 -249.19,63.65 -56.45,9.84 -113.67,15.42 -170.99,15.64 -10.96,0.65 -21.91,-0.3 -32.88,-0.26 C 578.63,618.55 496.38,605.52 417.93,580.07 339.44,554.82 265,518.19 194.6,475.5 160.07,454.76 126.73,432.15 93.52,409.37 67.19,391.1 41.49,371.88 14.45,354.64 c 2.36,-4.86 4.15,-10.22 8.06,-14.12 z"
         id="path47"
         style="opacity:1;fill:#038561" />
    </g>
  </g>
</svg>
