<?xml version="1.0" encoding="UTF-8" ?>
<!DOCTYPE svg PUBLIC "-//W3C//DTD SVG 1.1//EN" "http://www.w3.org/Graphics/SVG/1.1/DTD/svg11.dtd">
<svg width="2328pt" height="635pt" viewBox="0 0 2328 635" version="1.1" xmlns="http://www.w3.org/2000/svg">
<g id="#ffffffff">
</g>
<g id="#1e2c87ff">
<path fill="#1e2c87" opacity="1.00" d=" M 1972.81 49.54 C 2003.43 41.01 2031.85 26.43 2059.39 10.83 C 2055.55 18.59 2051.13 26.06 2047.34 33.84 C 2061.19 32.55 2075.08 31.70 2088.95 30.52 C 2080.11 36.51 2071.09 42.22 2062.43 48.44 C 2076.35 56.03 2091.07 61.98 2105.29 68.95 C 2093.20 69.45 2081.09 69.20 2069.00 69.62 C 2077.92 80.77 2086.97 91.98 2093.78 104.58 C 2071.20 91.12 2051.99 72.55 2028.51 60.52 C 2011.24 52.06 1991.62 51.22 1972.81 49.54 Z" />
<path fill="#1e2c87" opacity="1.00" d=" M 2292.27 103.71 C 2296.47 101.07 2300.58 98.29 2304.88 95.81 C 2301.62 101.99 2298.10 108.02 2294.98 114.26 C 2301.23 111.56 2307.31 108.47 2313.49 105.58 C 2310.43 112.51 2308.22 120.00 2309.21 127.65 C 2283.91 142.42 2256.54 153.37 2228.61 162.06 C 2251.14 144.46 2270.70 122.89 2284.83 97.97 C 2287.29 99.89 2289.76 101.82 2292.27 103.71 Z" />
<path fill="#1e2c87" opacity="1.00" d=" M 1404.56 254.75 C 1416.57 242.35 1428.21 229.54 1441.43 218.41 C 1438.52 230.18 1429.80 239.64 1427.48 251.62 C 1426.01 257.46 1428.96 263.28 1433.33 267.05 C 1400.27 277.28 1370.53 295.62 1342.44 315.43 C 1353.18 303.98 1362.81 291.48 1370.90 278.01 C 1382.60 258.91 1392.10 238.58 1402.94 219.00 C 1403.70 230.91 1403.99 242.83 1404.56 254.75 Z" />
<path fill="#1e2c87" opacity="1.00" d=" M 1626.78 296.48 C 1644.86 281.32 1659.12 262.38 1674.67 244.79 C 1671.56 253.34 1668.24 261.81 1664.93 270.28 C 1677.51 267.81 1690.00 264.88 1702.65 262.70 C 1694.03 271.33 1684.36 278.85 1675.71 287.44 C 1688.90 288.81 1702.06 290.35 1715.20 292.12 C 1707.49 299.75 1697.72 304.66 1688.24 309.66 C 1696.12 318.21 1704.22 326.57 1712.05 335.18 C 1691.15 330.68 1670.03 327.24 1648.88 324.16 C 1647.84 317.75 1646.87 311.34 1645.92 304.92 C 1645.55 303.59 1645.55 301.66 1643.90 301.28 C 1638.31 299.29 1632.51 297.95 1626.78 296.48 Z" />
<path fill="#1e2c87" opacity="1.00" d=" M 1178.29 334.37 C 1184.31 322.57 1190.05 310.62 1196.36 298.98 C 1198.56 324.69 1195.41 350.58 1197.71 376.29 C 1201.00 371.50 1202.43 365.74 1204.40 360.34 C 1209.05 345.61 1211.67 330.32 1216.65 315.69 C 1218.63 321.47 1219.35 327.59 1220.88 333.50 C 1230.03 327.33 1238.51 320.24 1247.34 313.64 C 1245.47 321.47 1243.22 329.19 1241.21 336.98 C 1251.39 334.10 1261.52 331.02 1271.80 328.48 C 1256.77 345.59 1246.14 366.00 1231.53 383.43 C 1217.21 398.44 1205.33 415.65 1195.37 433.80 C 1199.11 434.21 1202.87 434.60 1206.59 435.30 C 1206.73 435.42 1207.00 435.66 1207.13 435.77 C 1209.23 437.86 1211.30 440.00 1213.71 441.75 C 1207.45 442.57 1201.19 443.73 1194.85 443.16 C 1192.11 442.62 1189.35 442.19 1186.60 441.75 C 1183.73 439.36 1180.66 437.20 1177.43 435.33 C 1182.21 432.08 1187.46 429.57 1192.15 426.17 C 1185.63 426.85 1179.16 427.94 1172.64 428.53 C 1176.02 423.46 1179.38 418.36 1182.66 413.22 C 1169.01 402.37 1160.84 386.41 1154.56 370.50 C 1149.64 359.02 1146.23 346.87 1140.42 335.81 C 1142.24 350.26 1143.55 365.71 1152.20 377.99 C 1157.63 384.70 1161.97 392.20 1166.79 399.37 C 1172.13 407.78 1176.71 418.57 1172.07 428.32 C 1166.56 423.41 1162.17 417.08 1155.56 413.52 C 1151.61 411.28 1146.86 411.57 1142.60 412.60 C 1126.37 384.72 1098.26 366.51 1080.99 339.43 C 1090.22 341.78 1099.40 344.35 1108.59 346.93 C 1108.84 336.86 1108.76 326.79 1108.96 316.72 C 1114.95 323.61 1120.81 330.62 1126.76 337.55 C 1129.81 328.78 1131.93 319.71 1134.71 310.85 C 1142.17 319.92 1149.49 329.11 1157.28 337.91 C 1161.62 326.93 1164.02 315.33 1166.49 303.82 C 1170.11 314.11 1173.71 324.46 1178.29 334.37 Z" />
<path fill="#1e2c87" opacity="1.00" d=" M 1078.74 367.64 C 1096.10 382.76 1112.08 399.40 1129.72 414.22 C 1124.46 416.25 1118.91 417.48 1113.76 419.77 C 1112.42 420.22 1112.12 421.66 1111.68 422.82 C 1110.38 426.58 1109.51 430.46 1108.60 434.33 C 1102.50 430.71 1096.13 427.59 1089.86 424.28 C 1091.47 416.96 1091.96 409.45 1092.68 402.01 C 1093.00 400.18 1092.08 398.53 1091.30 396.97 C 1086.32 387.56 1082.17 377.71 1078.74 367.64 Z" />
<path fill="#1e2c87" opacity="1.00" d=" M 1242.01 380.88 C 1244.30 380.82 1246.66 380.60 1248.93 381.21 C 1250.26 383.90 1247.59 386.30 1245.56 387.64 C 1244.14 388.27 1242.09 389.76 1240.97 387.93 C 1240.39 385.52 1241.33 383.15 1242.01 380.88 Z" />
<path fill="#1e2c87" opacity="1.00" d=" M 1322.89 458.27 C 1325.61 457.74 1328.32 456.98 1331.13 457.09 C 1322.21 464.07 1311.77 468.83 1301.00 472.14 C 1296.26 473.76 1291.27 474.52 1286.60 476.36 C 1295.50 480.75 1304.44 485.07 1313.29 489.57 C 1302.17 490.20 1291.05 490.80 1279.92 491.21 C 1290.79 501.19 1302.00 510.78 1312.93 520.70 C 1294.98 514.95 1277.19 507.91 1261.59 497.16 C 1262.22 497.11 1263.48 497.00 1264.10 496.95 C 1266.34 497.42 1268.65 497.40 1270.86 496.69 C 1272.38 496.41 1273.89 496.13 1275.44 495.86 C 1273.08 489.83 1269.31 484.50 1266.92 478.49 C 1270.23 476.30 1273.54 474.12 1276.84 471.91 C 1278.12 470.93 1279.81 470.09 1280.24 468.39 C 1273.44 466.69 1266.62 464.98 1259.74 463.66 C 1260.63 462.77 1261.71 462.42 1262.95 462.61 C 1283.02 463.89 1303.16 461.94 1322.89 458.27 Z" />
<path fill="#1e2c87" opacity="1.00" d=" M 1197.29 483.02 C 1202.11 484.44 1206.79 486.37 1211.75 487.34 C 1212.93 487.61 1214.15 487.87 1215.37 488.14 C 1219.44 493.49 1224.48 498.03 1228.94 503.07 C 1225.35 506.17 1221.84 509.36 1218.14 512.33 C 1217.07 521.82 1217.26 531.41 1216.03 540.89 C 1211.39 532.55 1207.85 523.66 1204.46 514.76 C 1199.69 521.00 1195.63 527.75 1191.01 534.11 C 1190.99 526.18 1192.82 518.37 1193.20 510.45 C 1187.01 511.81 1180.90 513.50 1174.68 514.64 C 1175.96 510.85 1177.02 506.99 1178.03 503.12 C 1180.41 498.61 1184.59 495.55 1188.18 492.07 C 1191.25 489.09 1194.22 486.01 1197.29 483.02 Z" />
<path fill="#1e2c87" opacity="1.00" d=" M 1224.98 517.35 C 1227.58 512.99 1234.28 512.43 1237.50 516.37 C 1239.15 518.50 1238.07 521.25 1236.93 523.32 C 1232.94 521.32 1228.95 519.36 1224.98 517.35 Z" />
</g>
<g id="#7b93b2ff">
<path fill="#7b93b2" opacity="1.00" d=" M 1436.67 256.86 C 1439.22 256.20 1442.61 253.82 1444.93 256.08 C 1445.92 259.44 1443.27 263.52 1439.91 264.34 C 1436.69 263.58 1437.27 259.35 1436.67 256.86 Z" />
<path fill="#7b93b2" opacity="1.00" d=" M 1298.37 364.46 C 1300.47 360.77 1302.23 356.83 1305.04 353.59 C 1306.27 362.60 1306.32 371.71 1307.34 380.73 C 1311.32 378.12 1315.33 375.55 1319.46 373.18 C 1318.89 380.19 1318.59 387.23 1317.59 394.20 C 1317.13 392.69 1316.71 391.20 1316.30 389.71 C 1315.75 387.81 1315.22 385.90 1314.71 384.00 C 1309.95 386.48 1305.35 389.27 1300.36 391.28 C 1299.73 382.34 1299.04 373.40 1298.37 364.46 Z" />
<path fill="#7b93b2" opacity="1.00" d=" M 1195.37 433.80 C 1205.33 415.65 1217.21 398.44 1231.53 383.43 C 1234.99 389.21 1241.23 393.70 1241.89 400.91 C 1242.68 406.76 1238.20 411.25 1234.14 414.71 C 1237.85 413.49 1241.56 412.17 1245.46 411.64 C 1236.60 418.31 1226.97 423.90 1217.34 429.36 C 1213.92 431.46 1209.68 432.49 1207.13 435.77 C 1207.00 435.66 1206.73 435.42 1206.59 435.30 C 1202.87 434.60 1199.11 434.21 1195.37 433.80 Z" />
<path fill="#7b93b2" opacity="1.00" d=" M 1075.65 395.98 C 1080.96 396.80 1086.25 397.79 1091.55 398.72 L 1091.30 396.97 C 1092.08 398.53 1093.00 400.18 1092.68 402.01 C 1091.96 409.45 1091.47 416.96 1089.86 424.28 C 1085.05 420.21 1080.47 415.89 1075.87 411.60 C 1078.90 410.95 1081.95 410.33 1085.00 409.72 C 1082.03 405.04 1078.62 400.65 1075.65 395.98 Z" />
<path fill="#7b93b2" opacity="1.00" d=" M 1264.10 496.95 C 1266.07 495.23 1268.71 495.37 1270.86 496.69 C 1268.65 497.40 1266.34 497.42 1264.10 496.95 Z" />
</g>
<g id="#1556a7ff">
<path fill="#1556a7" opacity="1.00" d=" M 1591.20 319.31 C 1603.06 311.71 1614.98 304.19 1626.78 296.48 C 1632.51 297.95 1638.31 299.29 1643.90 301.28 C 1645.55 301.66 1645.55 303.59 1645.92 304.92 C 1646.87 311.34 1647.84 317.75 1648.88 324.16 C 1629.71 321.93 1610.51 319.70 1591.20 319.31 Z" />
<path fill="#1556a7" opacity="1.00" d=" M 1245.46 411.64 C 1265.49 398.85 1282.87 382.37 1298.37 364.46 C 1299.04 373.40 1299.73 382.34 1300.36 391.28 C 1305.35 389.27 1309.95 386.48 1314.71 384.00 C 1315.22 385.90 1315.75 387.81 1316.30 389.71 C 1312.46 399.62 1301.87 403.61 1294.15 409.83 C 1308.71 410.56 1323.28 411.15 1337.82 412.39 C 1325.73 423.27 1309.00 425.48 1293.60 428.10 C 1299.69 433.01 1306.28 437.27 1312.46 442.07 C 1290.63 449.07 1267.50 453.69 1244.51 451.22 C 1233.73 450.12 1223.34 446.64 1213.71 441.75 C 1211.30 440.00 1209.23 437.86 1207.13 435.77 C 1209.68 432.49 1213.92 431.46 1217.34 429.36 C 1226.97 423.90 1236.60 418.31 1245.46 411.64 Z" />
<path fill="#1556a7" opacity="1.00" d=" M 1129.72 414.22 C 1137.91 417.03 1143.58 423.84 1150.13 429.12 C 1152.39 426.37 1154.65 423.61 1156.94 420.87 C 1163.80 425.64 1170.40 430.80 1177.43 435.33 C 1180.66 437.20 1183.73 439.36 1186.60 441.75 C 1177.70 454.32 1168.17 466.44 1157.90 477.91 C 1149.20 487.01 1139.38 494.96 1129.74 503.02 C 1130.13 497.89 1130.66 492.78 1131.10 487.67 C 1125.50 488.83 1119.90 490.00 1114.30 491.11 C 1117.84 485.52 1121.82 480.20 1125.18 474.48 C 1115.73 474.05 1106.29 473.72 1096.85 473.18 C 1103.03 468.98 1109.96 466.06 1116.26 462.08 C 1103.62 453.51 1089.72 446.42 1078.62 435.71 C 1096.71 441.12 1114.89 447.00 1133.85 448.42 C 1146.97 449.45 1160.45 448.79 1173.06 444.73 C 1151.60 441.17 1129.43 441.15 1108.60 434.33 C 1109.51 430.46 1110.38 426.58 1111.68 422.82 C 1112.12 421.66 1112.42 420.22 1113.76 419.77 C 1118.91 417.48 1124.46 416.25 1129.72 414.22 Z" />
<path fill="#1556a7" opacity="1.00" d=" M 1194.06 448.30 C 1195.76 446.74 1195.66 443.39 1198.61 443.52 C 1204.00 442.14 1208.41 445.86 1213.03 447.92 C 1223.92 453.16 1235.32 457.33 1246.98 460.50 C 1250.63 461.38 1254.37 462.58 1258.18 461.83 C 1257.89 462.42 1257.62 463.03 1257.38 463.64 C 1257.97 463.65 1259.15 463.66 1259.74 463.66 C 1266.62 464.98 1273.44 466.69 1280.24 468.39 C 1279.81 470.09 1278.12 470.93 1276.84 471.91 C 1273.54 474.12 1270.23 476.30 1266.92 478.49 C 1269.31 484.50 1273.08 489.83 1275.44 495.86 C 1273.89 496.13 1272.38 496.41 1270.86 496.69 C 1268.71 495.37 1266.07 495.23 1264.10 496.95 C 1263.48 497.00 1262.22 497.11 1261.59 497.16 C 1248.42 490.91 1237.29 481.11 1226.42 471.53 C 1218.31 464.25 1210.30 456.86 1201.88 449.95 C 1204.57 462.92 1209.27 475.44 1215.10 487.32 C 1214.26 487.32 1212.59 487.33 1211.75 487.34 C 1206.79 486.37 1202.11 484.44 1197.29 483.02 C 1194.22 486.01 1191.25 489.09 1188.18 492.07 C 1184.59 495.55 1180.41 498.61 1178.03 503.12 C 1182.68 484.66 1187.66 466.25 1194.06 448.30 Z" />
</g>
<g id="#038561ff">
<path fill="#038561" opacity="1.00" d=" M 22.51 340.52 C 24.03 338.87 26.70 338.14 28.66 339.47 C 94.21 394.97 163.59 446.49 238.54 488.70 C 272.11 507.70 307.08 524.11 342.55 539.25 C 462.41 589.42 593.41 610.71 723.01 607.28 C 732.64 606.46 742.32 606.80 751.95 606.00 C 833.82 601.53 915.20 588.98 994.92 569.87 C 1017.46 564.58 1039.84 558.62 1062.11 552.29 C 1080.82 546.60 1099.98 542.51 1118.58 536.45 C 1137.13 530.54 1155.49 523.48 1172.15 513.28 C 1170.67 513.51 1168.87 514.97 1167.73 513.34 C 1162.71 508.15 1157.89 502.39 1155.45 495.49 C 1153.33 489.70 1154.08 482.84 1157.90 477.91 C 1168.17 466.44 1177.70 454.32 1186.60 441.75 C 1189.35 442.19 1192.11 442.62 1194.85 443.16 L 1195.90 443.74 C 1195.15 445.21 1194.41 446.68 1194.06 448.30 C 1187.66 466.25 1182.68 484.66 1178.03 503.12 C 1177.02 506.99 1175.96 510.85 1174.68 514.64 C 1174.18 515.77 1173.92 517.07 1173.12 518.03 C 1154.02 527.23 1134.63 536.19 1114.05 541.61 C 1032.53 568.27 949.75 592.06 864.86 605.26 C 808.41 615.10 751.19 620.68 693.87 620.90 C 682.91 621.55 671.96 620.60 660.99 620.64 C 578.63 618.55 496.38 605.52 417.93 580.07 C 339.44 554.82 265.00 518.19 194.60 475.50 C 160.07 454.76 126.73 432.15 93.52 409.37 C 67.19 391.10 41.49 371.88 14.45 354.64 C 16.81 349.78 18.60 344.42 22.51 340.52 Z" />
</g>
</svg>
