<?xml version="1.0" encoding="UTF-8" standalone="no"?>
<svg
   xmlns:dc="http://purl.org/dc/elements/1.1/"
   xmlns:cc="http://creativecommons.org/ns#"
   xmlns:rdf="http://www.w3.org/1999/02/22-rdf-syntax-ns#"
   xmlns:svg="http://www.w3.org/2000/svg"
   xmlns="http://www.w3.org/2000/svg"
   width="47pt"
   height="15pt"
   viewBox="0 0 47 15"
   version="1.1"
   id="svg2">
  <metadata
     id="metadata53">
    <rdf:RDF>
      <cc:Work
         rdf:about="">
        <dc:format>image/svg+xml</dc:format>
        <dc:type
           rdf:resource="http://purl.org/dc/dcmitype/StillImage" />
        <dc:title></dc:title>
      </cc:Work>
    </rdf:RDF>
  </metadata>
  <defs
     id="defs51" />
  <g
     id="#ffffffff"
     transform="translate(0,-620)" />
  <g
     id="g4181"
     transform="matrix(0.01946536,0,0,0.01946536,0.8751995,13.202933)">
    <g
       transform="matrix(1.4558015,0,0,1.4558015,185.59661,-982.47091)"
       id="#038561ff">
      <path
         style="opacity:1;fill:#038561"
         id="path47"
         d="m 22.51,340.52 c 1.52,-1.65 4.19,-2.38 6.15,-1.05 65.55,55.5 134.93,107.02 209.88,149.23 33.57,19 68.54,35.41 104.01,50.55 119.86,50.17 250.86,71.46 380.46,68.03 9.63,-0.82 19.31,-0.48 28.94,-1.28 81.87,-4.47 163.25,-17.02 242.97,-36.13 22.54,-5.29 44.92,-11.25 67.19,-17.58 18.71,-5.69 37.87,-9.78 56.47,-15.84 18.55,-5.91 36.91,-12.97 53.57,-23.17 -1.48,0.23 -3.28,1.69 -4.42,0.06 -5.02,-5.19 -9.84,-10.95 -12.28,-17.85 -2.12,-5.79 -1.37,-12.65 2.45,-17.58 10.27,-11.47 19.8,-23.59 28.7,-36.16 2.75,0.44 5.51,0.87 8.25,1.41 l 1.05,0.58 c -0.75,1.47 -1.49,2.94 -1.84,4.56 -6.4,17.95 -11.38,36.36 -16.03,54.82 -1.01,3.87 -2.07,7.73 -3.35,11.52 -0.5,1.13 -0.76,2.43 -1.56,3.39 -19.1,9.2 -38.49,18.16 -59.07,23.58 -81.52,26.66 -164.3,50.45 -249.19,63.65 -56.45,9.84 -113.67,15.42 -170.99,15.64 -10.96,0.65 -21.91,-0.3 -32.88,-0.26 C 578.63,618.55 496.38,605.52 417.93,580.07 339.44,554.82 265,518.19 194.6,475.5 160.07,454.76 126.73,432.15 93.52,409.37 67.19,391.1 41.49,371.88 14.45,354.64 c 2.36,-4.86 4.15,-10.22 8.06,-14.12 z" />
    </g>
    <path
       d="m 313.35031,-495.46453 c 90.7393,-25.2778 174.9591,-68.4842 256.5711,-114.7132 -11.3795,22.996 -24.4777,45.1326 -35.709,68.1878 41.0431,-3.8228 82.2047,-6.3416 123.307,-9.8385 -26.1964,17.7508 -52.9263,34.6718 -78.5893,53.1042 41.2505,22.4922 84.8718,40.1244 127.0113,60.7793 -35.8275,1.4817 -71.7143,0.7408 -107.5418,1.9854 26.4336,33.0419 53.2523,66.2616 73.4331,103.6005 -66.9136,-39.8874 -123.8405,-94.9177 -193.4211,-130.5674 -51.1779,-25.0703 -109.3198,-27.5596 -165.0613,-32.5381 z"
       id="path6"
       style="opacity:1;fill:#1e2c87" />
    <path
       d="m 675.03497,-96.602746 c 12.4462,-7.823404 24.6258,-16.061604 37.3684,-23.410804 -9.6607,18.3138 -20.0918,36.183104 -29.3376,54.674704 18.5212,-8.0012 36.5387,-17.1581 54.8525,-25.7223 -9.068,20.5363 -15.6171,42.7322 -12.6834,65.4022 -74.974,43.7694 -156.0822,76.2186 -238.8499,101.9706 66.7653,-52.1559 124.7294,-116.0764 166.6023,-189.924304 7.2899,5.6897 14.6095,11.4091 22.0477,17.009904 z"
       id="path8"
       style="opacity:1;fill:#1e2c87" />
    <path
       d="m 187.23957,-132.17993 c 35.5905,-36.74615 70.0844,-74.70729 109.2606,-107.68992 -8.6235,34.8792 -34.4644,62.91296 -41.3395,98.41448 -4.3561,17.30625 4.3859,34.55324 17.3359,45.725252 C 174.52667,-65.414548 86.395166,-11.065807 3.1532677,47.639133 34.980168,13.708213 63.517668,-23.334277 87.491566,-63.251268 122.16337,-119.85219 150.31567,-180.09809 182.43887,-238.12145 c 2.2522,35.29409 3.1116,70.6178 4.8007,105.94152 z"
       id="path10"
       style="opacity:1;fill:#1e2c87" />
    <path
       d="m 1077.6007,-303.18537 c 53.5782,-44.92514 95.8363,-101.05191 141.9172,-153.1781 -9.2162,25.33706 -19.0547,50.43705 -28.8635,75.53704 37.2795,-7.3196 74.2924,-16.00236 111.7794,-22.46257 -25.5445,25.57414 -54.2006,47.8589 -79.834,73.3145 39.0872,4.05985 78.0856,8.62349 117.0246,13.86871 -22.8478,22.61073 -51.8002,37.16102 -79.8932,51.97802 23.3516,25.33706 47.3551,50.11107 70.5585,75.62594 -61.935,-13.3353 -124.522,-23.52939 -187.1979,-32.65666 -3.0819,-18.99539 -5.9564,-37.99077 -8.7717,-57.0158 -1.0964,-3.94132 -1.0964,-9.66068 -5.986,-10.78677 -16.5654,-5.89716 -33.7531,-9.86812 -50.7334,-14.22431 z"
       id="path12"
       style="opacity:1;fill:#1e2c87" />
    <path
       d="m 1884.8894,-526.73714 c 17.8397,-34.96811 34.8496,-70.38073 53.5486,-104.8747 6.5195,76.18899 -2.8152,152.9114 4.0006,229.10039 9.7496,-14.19468 13.9873,-31.26386 19.8252,-47.26622 13.7798,-43.65087 21.5439,-88.96124 36.3016,-132.31577 5.8675,17.12845 8.0012,35.26445 12.5352,52.77814 27.1151,-18.28417 52.2447,-39.29467 78.4115,-58.85311 -5.5415,23.20342 -12.2092,46.08086 -18.1656,69.16574 30.1674,-8.53459 60.1866,-17.66186 90.6504,-25.18889 -44.5399,50.70375 -76.0408,111.18673 -119.3361,162.83878 -42.4359,44.48062 -77.6411,95.48072 -107.1565,149.26641 11.0831,1.21499 22.2255,2.37072 33.2493,4.4451 0.4149,0.35561 1.215,1.06682 1.6003,1.3928 6.2231,6.1935 12.3573,12.53517 19.4991,17.72112 -18.5509,2.42999 -37.1017,5.86753 -55.8897,4.1784 -8.1197,-1.60024 -16.2987,-2.8745 -24.448,-4.1784 -8.505,-7.08252 -17.6026,-13.48346 -27.1744,-19.02502 14.1651,-9.63105 29.7229,-17.06918 43.6212,-27.14474 -19.3213,2.01512 -38.4945,5.24522 -57.8159,6.99363 10.0163,-15.02444 19.9733,-30.13777 29.6933,-45.36964 -40.4504,-32.15288 -64.6614,-79.44873 -83.2715,-126.59641 -14.58,-34.01983 -24.6851,-70.02512 -41.9025,-102.80032 5.3934,42.82112 9.2754,88.60563 34.9088,124.99618 16.0913,19.8844 28.9525,42.1099 43.236,63.35747 15.8246,24.92218 29.397,56.89726 15.6468,85.7904 -16.3283,-14.55029 -29.3377,-33.3086 -48.9257,-43.8583 -11.7055,-6.63802 -25.7816,-5.77863 -38.4057,-2.72633 -48.096,-82.61957 -131.3971,-136.58307 -182.575,-216.83191 27.3522,6.96398 54.5562,14.57992 81.7898,22.22549 0.7409,-29.84143 0.5038,-59.68286 1.0965,-89.52429 17.7507,20.41782 35.1162,41.19125 52.7485,61.72761 9.0383,-25.98901 15.3207,-52.86704 23.559,-79.12276 22.107,26.87803 43.799,54.11167 66.8839,80.18958 12.8612,-32.53812 19.9733,-66.91355 27.2929,-101.02228 10.7275,30.49338 21.3958,61.16456 34.9681,90.53185 z"
       id="path14"
       style="opacity:1;fill:#1e2c87" />
    <path
       d="m 1589.883,-428.14485 c 51.4447,44.80659 98.7998,94.11755 151.0741,138.03513 -15.5874,6.0157 -32.0343,9.66068 -47.2958,16.44686 -3.971,1.33353 -4.86,5.60082 -6.1639,9.03837 -3.8524,11.14238 -6.4306,22.64037 -9.1273,34.10872 -18.0767,-10.7275 -36.9535,-19.97331 -55.5341,-29.78216 4.7711,-21.69208 6.2232,-43.94721 8.3568,-65.9949 0.9483,-5.42302 -1.778,-10.31263 -4.0895,-14.93553 -14.7577,-27.88558 -27.0558,-57.07507 -37.2203,-86.91649 z"
       id="path16"
       style="opacity:1;fill:#1e2c87" />
    <path
       d="m 2073.7172,-388.90945 c 6.7862,-0.1778 13.7798,-0.82975 20.5067,0.97792 3.9414,7.97154 -3.9709,15.0837 -9.9866,19.05466 -4.208,1.86694 -10.283,6.2824 -13.602,0.85938 -1.7188,-7.14179 1.0668,-14.16504 3.0819,-20.89196 z"
       id="path18"
       style="opacity:1;fill:#1e2c87" />
    <path
       d="m 2313.3969,-159.57199 c 8.0605,-1.57061 16.0913,-3.82279 24.4184,-3.49682 -26.4335,20.68453 -57.3714,34.79031 -89.2872,44.59916 -14.0465,4.80071 -28.8338,7.05289 -42.6729,12.50555 26.3742,13.009317 52.867,25.811201 79.0931,39.146497 -32.953,1.866942 -65.906,3.644981 -98.8886,4.859975 32.2121,29.574723 65.4318,57.9937203 97.8218,87.390639 -53.193,-17.0395445 -105.9119,-37.901874 -152.1409,-69.758414 1.8669,-0.14817 5.6008,-0.474144 7.4381,-0.622314 6.638,1.392797 13.4835,1.333529 20.0326,-0.770484 4.5043,-0.829752 8.9791,-1.659504 13.5723,-2.459621 -6.9936,-17.869297 -18.1656,-33.664214 -25.2481,-51.474243 9.8088,-6.489845 19.6177,-12.950055 29.3969,-19.499165 3.7932,-2.90413 8.8013,-5.39339 10.0756,-10.43117 -20.1512,-5.03777 -40.3615,-10.10519 -60.7497,-14.01687 2.6374,-2.63743 5.8379,-3.67462 9.5125,-3.11157 59.4754,3.79315 119.1583,-1.98548 177.6261,-12.86115 z"
       id="path20"
       style="opacity:1;fill:#1e2c87" />
    <path
       d="m 1941.194,-86.227867 c 14.2836,4.208027 28.1523,9.927387 42.8508,12.801884 3.4968,0.800118 7.1121,1.570602 10.7275,2.37072 12.061,15.854185 26.9965,29.308017 40.2133,44.243548 -10.6386,9.186537 -21.0401,18.6397806 -32.0047,27.4410759 -3.1709,28.1226571 -2.6078,56.5416551 -6.2528,84.6346781 -13.7502,-24.714748 -24.2406,-51.059366 -34.2865,-77.4336183 -14.1354,18.4916103 -26.1668,38.4945543 -39.8577,57.3417723 -0.059,-23.499755 5.3637,-46.643902 6.4898,-70.1140224 -18.3434,4.03022277 -36.4498,9.0383673 -54.8821,12.4166422 3.7931,-11.2312826 6.9343,-22.6700028 9.9273,-34.1383578 7.0529,-13.36493 19.4399,-22.432931 30.0785,-32.74556 9.0977,-8.830929 17.899,-17.958198 26.9966,-26.818762 z"
       id="path22"
       style="opacity:1;fill:#1e2c87" />
    <path
       d="m 2023.2505,15.505624 c 7.7049,-12.9204197 27.5596,-14.57992319 37.1018,-2.904131 4.8896,6.31204 1.6891,14.461388 -1.6892,20.595624 -11.8239,-5.926798 -23.6479,-11.73506 -35.4126,-17.691493 z"
       id="path24"
       style="opacity:1;fill:#1e2c87" />
    <g
       transform="matrix(2.9633991,0,0,2.9633991,-1606.8541,-1517.6089)"
       id="#7b93b2ff">
      <path
         style="opacity:1;fill:#7b93b2"
         id="path27"
         d="m 1436.67,256.86 c 2.55,-0.66 5.94,-3.04 8.26,-0.78 0.99,3.36 -1.66,7.44 -5.02,8.26 -3.22,-0.76 -2.64,-4.99 -3.24,-7.48 z" />
      <path
         style="opacity:1;fill:#7b93b2"
         id="path29"
         d="m 1298.37,364.46 c 2.1,-3.69 3.86,-7.63 6.67,-10.87 1.23,9.01 1.28,18.12 2.3,27.14 3.98,-2.61 7.99,-5.18 12.12,-7.55 -0.57,7.01 -0.87,14.05 -1.87,21.02 -0.46,-1.51 -0.88,-3 -1.29,-4.49 -0.55,-1.9 -1.08,-3.81 -1.59,-5.71 -4.76,2.48 -9.36,5.27 -14.35,7.28 -0.63,-8.94 -1.32,-17.88 -1.99,-26.82 z" />
      <path
         style="opacity:1;fill:#7b93b2"
         id="path31"
         d="m 1195.37,433.8 c 9.96,-18.15 21.84,-35.36 36.16,-50.37 3.46,5.78 9.7,10.27 10.36,17.48 0.79,5.85 -3.69,10.34 -7.75,13.8 3.71,-1.22 7.42,-2.54 11.32,-3.07 -8.86,6.67 -18.49,12.26 -28.12,17.72 -3.42,2.1 -7.66,3.13 -10.21,6.41 -0.13,-0.11 -0.4,-0.35 -0.54,-0.47 -3.72,-0.7 -7.48,-1.09 -11.22,-1.5 z" />
      <path
         style="opacity:1;fill:#7b93b2"
         id="path33"
         d="m 1075.65,395.98 c 5.31,0.82 10.6,1.81 15.9,2.74 l -0.25,-1.75 c 0.78,1.56 1.7,3.21 1.38,5.04 -0.72,7.44 -1.21,14.95 -2.82,22.27 -4.81,-4.07 -9.39,-8.39 -13.99,-12.68 3.03,-0.65 6.08,-1.27 9.13,-1.88 -2.97,-4.68 -6.38,-9.07 -9.35,-13.74 z" />
      <path
         style="opacity:1;fill:#7b93b2"
         id="path35"
         d="m 1264.1,496.95 c 1.97,-1.72 4.61,-1.58 6.76,-0.26 -2.21,0.71 -4.52,0.73 -6.76,0.26 z" />
    </g>
    <path
       d="m 972.16285,-235.53097 c 35.14605,-22.52184 70.46975,-44.8066 105.43785,-67.6544 16.9803,4.35619 34.168,8.32715 50.7334,14.22431 4.8896,1.12609 4.8896,6.84545 5.986,10.78677 2.8153,19.02503 5.6898,38.02041 8.7717,57.0158 -56.8084,-6.60838 -113.7056,-13.21676 -170.92895,-14.37248 z"
       id="path38"
       style="opacity:1;fill:#1556a7" />
    <path
       d="m 2083.9409,-297.75529 c 59.3569,-37.90188 110.8608,-86.7387 156.7935,-139.81317 1.9855,26.49278 4.0302,52.98557 5.8972,79.47836 14.7873,-5.95643 28.419,-14.22432 42.5247,-21.57355 1.5114,5.63046 3.082,11.29055 4.7118,16.92101 -11.3794,29.36729 -42.7618,41.19125 -65.6393,59.62359 43.1471,2.16328 86.3239,3.91169 129.4117,7.5863 -35.8275,32.24179 -85.4052,38.7909 -131.0415,46.555 18.0471,14.55029 37.5759,27.17437 55.8897,41.39869 -64.691,20.74379 -133.2344,34.4347 -201.363,27.1151 -31.9454,-3.25974 -62.7351,-13.57237 -91.2727,-28.06339 -7.1418,-5.18595 -13.276,-11.52762 -19.4991,-17.72112 7.5566,-9.71995 20.1214,-12.77225 30.2563,-18.99539 28.5375,-16.18016 57.075,-32.74556 83.3307,-52.51143 z"
       id="path40"
       style="opacity:1;fill:#1556a7" />
    <path
       d="m 1740.9571,-290.10972 c 24.2703,8.32715 41.0727,28.50789 60.483,44.15464 6.6973,-8.14935 13.3946,-16.32833 20.1808,-24.44804 20.3289,14.13541 39.8873,29.42655 60.72,42.85075 9.5718,5.54156 18.6694,11.9425 27.1744,19.02502 -26.3743,37.24993 -54.6155,73.16633 -85.0496,107.15651 -25.7816,26.966936 -54.8821,50.525959 -83.4493,74.410955 1.1557,-15.202237 2.7263,-30.345207 4.0302,-45.488176 -16.595,3.437543 -33.19,6.90472 -49.7851,10.194093 10.4904,-16.565401 22.2848,-32.330684 32.2418,-49.281332 -28.0041,-1.27426 -55.9786,-2.25218 -83.9531,-3.85241 18.3138,-12.44628 38.8502,-21.09941 57.5196,-32.89373 -37.4574,-25.39633 -78.6486,-46.40683 -111.5424,-78.14484 53.6079,16.03199 107.4825,33.45678 163.6686,37.6648 38.8798,3.05231 78.8264,1.09646 116.1948,-10.93494 -63.5945,-10.5497 -129.2931,-10.60897 -191.0207,-30.81935 2.6967,-11.46835 5.2749,-22.96634 9.1273,-34.10872 1.3039,-3.43755 2.1929,-7.70484 6.1639,-9.03837 15.2615,-6.78618 31.7084,-10.43116 47.2958,-16.44686 z"
       id="path42"
       style="opacity:1;fill:#1556a7" />
    <path
       d="m 1931.6222,-189.11708 c 5.0378,-4.62291 4.7415,-14.55029 13.4835,-14.16505 15.9727,-4.08949 29.0413,6.93435 42.7322,13.03895 32.2714,15.52822 66.0542,27.88559 100.6074,37.27957 10.8164,2.60779 21.8995,6.16387 33.1901,3.94132 -0.8594,1.7484 -1.6595,3.55608 -2.3707,5.36375 1.7484,0.0296 5.2452,0.0593 6.9936,0.0593 20.3882,3.91168 40.5985,8.9791 60.7497,14.01687 -1.2743,5.03778 -6.2824,7.52704 -10.0756,10.43117 -9.7792,6.54911 -19.5881,13.00932 -29.3969,19.499165 7.0825,17.810029 18.2545,33.604946 25.2481,51.474243 -4.5932,0.800117 -9.068,1.629869 -13.5723,2.459621 -6.3713,-3.911687 -14.1947,-4.326563 -20.0326,0.770484 -1.8373,0.14817 -5.5712,0.474144 -7.4381,0.622314 -39.028,-18.521245 -72.0106,-47.562556 -104.2228,-75.951917 -24.0331,-21.57355 -47.77,-43.47307 -72.7218,-63.95015 7.9716,38.43528 21.8995,75.53704 39.1761,110.742219 -2.4892,0 -7.4381,0.02963 -9.9273,0.05927 -14.6985,-2.874497 -28.5672,-8.593857 -42.8508,-12.801884 -9.0976,8.860564 -17.8989,17.987833 -26.9966,26.818762 -10.6386,10.312629 -23.0256,19.38063 -30.0785,32.74556 13.7798,-54.704347 28.5376,-109.260525 47.5033,-162.453535 z"
       id="path44"
       style="opacity:1;fill:#1556a7" />
  </g>
</svg>
